<svg width="136" height="34" viewBox="0 0 136 34" fill="none" xmlns="http://www.w3.org/2000/svg">
<path d="M65.8145 24.4131L67.4899 19.8744H76.141L77.7859 24.4131H82.7511L75.2271 4.00391H68.5865L61.0625 24.4131H65.8145ZM70.14 12.6245L71.6936 8.02483H71.9982L73.4908 12.6245L74.6483 15.7925H68.9825L70.14 12.6245Z" fill="black"/>
<path d="M88.5681 24.4131V15.7316C88.5681 13.4165 89.5124 12.7159 91.7056 12.7159C94.0207 12.7159 94.7213 13.4774 94.7213 15.6098V24.4131H99.2905V14.6959C99.2905 11.4365 97.5847 8.78637 93.5942 8.78637C90.9136 8.78637 89.2687 10.0353 88.4462 11.7716H88.2635V9.09098H84.0293V24.4131H88.5681Z" fill="black"/>
<path d="M107.97 24.7178C110.224 24.7178 111.961 23.8039 112.753 22.159H112.905V24.4131H117.139V4.00391H112.6V11.1014H112.418C111.717 9.82206 110.316 8.78637 107.97 8.78637C103.797 8.78637 101.33 11.9239 101.33 16.7673C101.33 21.5802 103.645 24.7178 107.97 24.7178ZM105.868 16.7673C105.868 13.9648 106.599 12.6854 109.25 12.6854C111.412 12.6854 112.6 13.447 112.6 15.5184V17.9858C112.6 20.0571 111.412 20.8187 109.25 20.8187C106.599 20.8187 105.868 19.5393 105.868 16.7673Z" fill="black"/>
<path d="M122.836 29.5916C125.851 29.5916 127.557 28.6168 128.867 25.4793L135.69 9.09098H130.603L128.441 15.4879L127.496 18.4427H127.161L126.065 15.4879L123.567 9.09098H118.48L124.907 23.7734L124.633 24.3522C124.176 25.327 123.749 25.4793 122.592 25.4793H120.033V29.2565C120.673 29.4088 121.8 29.5916 122.836 29.5916Z" fill="black"/>
<path d="M13.3694 24.0958C13.3694 27.7877 10.3765 30.7805 6.68468 30.7805C2.99284 30.7805 0 27.7877 0 24.0958C0 20.404 2.99284 17.4111 6.68468 17.4111C10.3765 17.4111 13.3694 20.404 13.3694 24.0958Z" fill="#F7B731"/>
<path d="M9.28202 12.4246C7.37017 9.11315 8.3115 4.99043 11.3845 3.21621C14.4576 1.442 18.4986 2.68815 20.4105 5.99957L29.2438 21.2994C31.1556 24.6108 30.2143 28.7335 27.1413 30.5077C24.0683 32.2819 20.0272 31.0358 18.1154 27.7244L9.28202 12.4246Z" fill="#F7B731"/>
<path d="M26.4695 12.4246C24.5577 9.11315 25.499 4.99043 28.572 3.21621C31.6451 1.442 35.6861 2.68815 37.598 5.99957L46.4313 21.2994C48.3431 24.6108 47.4018 28.7335 44.3288 30.5077C41.2558 32.2819 37.2147 31.0358 35.3029 27.7244L26.4695 12.4246Z" fill="#F7B731"/>
</svg>
