<svg width="24" height="25" viewBox="0 0 24 25" fill="none" xmlns="http://www.w3.org/2000/svg">
<path fill-rule="evenodd" clip-rule="evenodd" d="M1 2.8424C1 2.35493 1.19365 1.88743 1.53834 1.54273C1.88303 1.19804 2.35053 1.0044 2.838 1.0044H21.16C21.4016 1.004 21.6409 1.05126 21.8641 1.14346C22.0874 1.23567 22.2903 1.37101 22.4612 1.54173C22.6322 1.71246 22.7677 1.91522 22.8602 2.13841C22.9526 2.36159 23.0001 2.60082 23 2.8424V21.1644C23.0003 21.406 22.9529 21.6453 22.8606 21.8686C22.7683 22.0919 22.6328 22.2948 22.462 22.4657C22.2912 22.6366 22.0884 22.7722 21.8651 22.8646C21.6419 22.957 21.4026 23.0045 21.161 23.0044H2.838C2.59655 23.0044 2.35746 22.9568 2.1344 22.8644C1.91134 22.772 1.70867 22.6365 1.53798 22.4657C1.3673 22.2949 1.23193 22.0922 1.13962 21.8691C1.04731 21.646 0.999869 21.4068 1 21.1654V2.8424ZM9.708 9.3924H12.687V10.8884C13.117 10.0284 14.217 9.2544 15.87 9.2544C19.039 9.2544 19.79 10.9674 19.79 14.1104V19.9324H16.583V14.8264C16.583 13.0364 16.153 12.0264 15.061 12.0264C13.546 12.0264 12.916 13.1154 12.916 14.8264V19.9324H9.708V9.3924ZM4.208 19.7954H7.416V9.2544H4.208V19.7944V19.7954ZM7.875 5.8164C7.88105 6.09107 7.83217 6.36418 7.73124 6.61971C7.63031 6.87524 7.47935 7.10803 7.28723 7.30443C7.09511 7.50083 6.8657 7.65687 6.61246 7.7634C6.35921 7.86994 6.08724 7.92481 5.8125 7.92481C5.53776 7.92481 5.26579 7.86994 5.01255 7.7634C4.7593 7.65687 4.52989 7.50083 4.33777 7.30443C4.14565 7.10803 3.99469 6.87524 3.89376 6.61971C3.79283 6.36418 3.74395 6.09107 3.75 5.8164C3.76187 5.27725 3.98439 4.76419 4.36989 4.38708C4.75539 4.00998 5.27322 3.79881 5.8125 3.79881C6.35178 3.79881 6.86961 4.00998 7.25512 4.38708C7.64062 4.76419 7.86313 5.27725 7.875 5.8164Z" fill="#666666"/>
</svg>
