<svg width="24" height="25" viewBox="0 0 24 25" fill="none" xmlns="http://www.w3.org/2000/svg">
<path d="M23.6435 4.94147C22.8085 5.31147 21.9115 5.56147 20.9685 5.67447C21.9415 5.09226 22.6694 4.17594 23.0165 3.09647C22.1023 3.63946 21.1018 4.02167 20.0585 4.22647C19.3569 3.47734 18.4276 2.9808 17.4148 2.81395C16.4021 2.64709 15.3626 2.81926 14.4577 3.30372C13.5529 3.78819 12.8333 4.55783 12.4107 5.49318C11.988 6.42852 11.886 7.47722 12.1205 8.47647C10.2682 8.38347 8.45613 7.90202 6.80192 7.06338C5.14772 6.22473 3.68834 5.04763 2.5185 3.60847C2.1185 4.29847 1.8885 5.09847 1.8885 5.95047C1.88805 6.71747 2.07693 7.47271 2.43838 8.1492C2.79982 8.82569 3.32266 9.40251 3.9605 9.82847C3.22078 9.80493 2.49737 9.60506 1.8505 9.24547V9.30547C1.85043 10.3812 2.22253 11.4238 2.90368 12.2565C3.58483 13.0891 4.53307 13.6604 5.5875 13.8735C4.90128 14.0592 4.18184 14.0865 3.4835 13.9535C3.781 14.8791 4.3605 15.6885 5.14087 16.2684C5.92124 16.8483 6.86342 17.1697 7.8355 17.1875C6.18533 18.4829 4.14739 19.1856 2.0495 19.1825C1.67788 19.1826 1.30658 19.1609 0.9375 19.1175C3.06698 20.4866 5.54584 21.2133 8.0775 21.2105C16.6475 21.2105 21.3325 14.1125 21.3325 7.95647C21.3325 7.75647 21.3275 7.55447 21.3185 7.35447C22.2298 6.69545 23.0164 5.87937 23.6415 4.94447L23.6435 4.94147Z" fill="#666666"/>
</svg>
